# xmcd
#
# Track frame offsets:
#	150
#	18330
#	36738
#	55687
#	89182
#	115852
#	131393
#	148793
#	171282
#	203777
#	234304
#	267024
#
# Disc length: 3976 seconds
#
# Revision: 1
# Processed by: cddbd v1.4b42PL1 Copyright (c) Steve Scherf et al.
# Submitted via: audiograbber 1.80
#
DISCID=aa0f860c
DTITLE=Albert King - The best of
DYEAR=1900
DGENRE=
TTITLE0=I´m ready
TTITLE1=Love shock
TTITLE2=Cold women with warm heart
TTITLE3=Sensation, comunication together
TTITLE4=Angel of mercy
TTITLE5=Rub me back
TTITLE6=My babe
TTITLE7=Nobody want a loser
TTITLE8=Ain´t nothing you can do
TTITLE9=I´ll play the blues for you
TTITLE10=Stormy monday
TTITLE11=Kansas city
EXTD=
EXTT0=
EXTT1=
EXTT2=
EXTT3=
EXTT4=
EXTT5=
EXTT6=
EXTT7=
EXTT8=
EXTT9=
EXTT10=
EXTT11=
PLAYORDER=
